<svg xmlns="http://www.w3.org/2000/svg" viewBox="0 0 512 512" fill="#ffffff"><!-- Font Awesome Free 6.5.1 by @fontawesome - https://fontawesome.com License - https://fontawesome.com/license/free Copyright 2023 Fonticons, Inc. --><path d="M256 512c-56.5 0-104.9-39.7-123.6-91.8c-20.8-7.9-42.3-15.9-63-22.1c-19.1-5.7-8.5-42.5 13.5-35.8c21.8 6.7 44.5 15.1 66.8 23.3C139.7 325.2 136 261.3 136 195.9C136 78.6 200.7 0 256 0s120 78.6 120 195.9c0 65.4-3.7 129.3-13.7 189.7c22.3-8.2 45-16.6 66.8-23.3c22-6.7 32.6 30.1 13.5 35.8c-20.7 6.2-42.2 14.2-63 22.1C360.9 472.3 312.5 512 256 512z"/></svg>
