<svg xmlns="http://www.w3.org/2000/svg" viewBox="0 0 512 512" fill="#ffffff"><!-- Simple DNA Helix --><path d="M304 448c0 17.7-14.3 32-32 32s-32-14.3-32-32l0-384c0-17.7 14.3-32 32-32s32 14.3 32 32l0 384zM160 384c0 17.7-14.3 32-32 32s-32-14.3-32-32l0-256c0-17.7 14.3-32 32-32s32 14.3 32 32l0 256zM352 384c0 17.7 14.3 32 32 32s32-14.3 32-32l0-256c0-17.7-14.3-32-32-32s-32 14.3-32 32l0 256zM96 256c0 17.7 14.3 32 32 32l32 0c17.7 0 32-14.3 32-32s-14.3-32-32-32l-32 0c-17.7 0-32 14.3-32 32zM352 256c0 17.7 14.3 32 32 32l32 0c17.7 0 32-14.3 32-32s-14.3-32-32-32l-32 0c-17.7 0-32 14.3-32 32zM272 160c0 17.7 14.3 32 32 32l80 0c17.7 0 32-14.3 32-32s-14.3-32-32-32l-80 0c-17.7 0-32 14.3-32 32zM128 160c0 17.7 14.3 32 32 32l80 0c17.7 0 32-14.3 32-32s-14.3-32-32-32l-80 0c-17.7 0-32 14.3-32 32zM272 352c0 17.7 14.3 32 32 32l80 0c17.7 0 32-14.3 32-32s-14.3-32-32-32l-80 0c-17.7 0-32 14.3-32 32zM128 352c0 17.7 14.3 32 32 32l80 0c17.7 0 32-14.3 32-32s-14.3-32-32-32l-80 0c-17.7 0-32 14.3-32 32z"/></svg>
