<svg xmlns="http://www.w3.org/2000/svg" viewBox="0 0 512 512" fill="#ffffff"><!-- Font Awesome Free 6.5.1 by @fontawesome - https://fontawesome.com License - https://fontawesome.com/license/free Copyright 2023 Fonticons, Inc. --><path d="M272 96c-78.6 0-145 12.9-196.2 35.2c-2.2 1-4.3 1.9-6.3 2.8c-12.8 5.8-25.4 11.6-38.1 17.4l-.1 0c-6.8 3.1-6.7 12.9 .1 16l25 11.4c35.6 16.2 87.8 39.8 178.6 81l0 0 .1 0c14.7 6.6 28.6 13 41.6 19.1c71.2 33.7 131.7 62.3 203.2 96c1.1 .5 2.2 1.1 3.3 1.6c7.7 3.6 16.9 .6 20.6-7.2s.6-16.9-7.2-20.6l-5.3-2.5c-69.8-32.9-129-60.9-198.7-93.9c-12.8-6-26.4-12.4-40.9-18.9c94.2-42.7 148.2-67.4 185.3-84.3l25.3-11.5c6.9-3.2 7-13.1 .1-16.2l-.1 0c-12.3-5.6-24.6-11.2-36.9-16.8c-2.1-1-4.2-1.9-6.3-2.9C369.8 102.7 325 96 272 96zM32 416c0 17.7 14.3 32 32 32s32-14.3 32-32s-14.3-32-32-32s-32 14.3-32 32z"/></svg>
