<svg xmlns="http://www.w3.org/2000/svg" viewBox="0 0 512 512" fill="#ffffff"><!-- Font Awesome Free 6.5.1 by @fontawesome - https://fontawesome.com License - https://fontawesome.com/license/free Copyright 2023 Fonticons, Inc. --><path d="M346.7 6.6c-24.8 11.4-26.7 45.4-3.7 68.4l15 15L313 135l-15-15c-35-35-91.9-35-126.9 0l-15 15L111 90.1l15-15c22.9-22.9 21.1-57-3.7-68.4c-12.7-5.8-27.4-4-38.3 4.4C69.4 22.2 40.7 47 19 75.8 4.2 95.4 0 112.2 0 120.4c0 14.1 5.3 27.6 14.9 37.9l46.2 50.1-50.6 50.6c-9.6 9.6-14.9 22.8-14.9 36.4 0 8.7 4.3 24.3 19 44.5 21.7 28.8 50.4 53.6 64.9 64.9 11 8.5 25.6 10.2 38.3 4.4 24.8-11.4 26.7-45.4 3.7-68.4l-15-15 45-45 15 15c35 35 91.9 35 126.9 0l15-15 45 45-15 15c-22.9 22.9-21.1 57 3.7 68.4 12.7 5.8 27.4 4 38.3-4.4 14.5-11.3 43.2-36.1 64.9-64.9 14.7-20.2 19-35.8 19-44.5 0-13.6-5.3-26.8-14.9-36.4l-50.6-50.6 46.2-50.1c9.6-10.3 14.9-23.8 14.9-37.9 0-8.2-4.2-25-19-44.5C470.9 47 442.2 22.2 427.7 11c-10.9-8.4-25.6-10.2-38.3-4.4zM169.1 199.1l-15-15c-6.1-6.1-6.1-16 0-22.1l50.6-50.6c6.1-6.1 16-6.1 22.1 0l15 15c6.1 6.1 6.1 16 0 22.1l-50.6 50.6c-6.1 6.1-16 6.1-22.1 0zm151.7 65.7c6.1 6.1 6.1 16 0 22.1l-50.6 50.6c-6.1 6.1-16 6.1-22.1 0l-15-15c-6.1-6.1-6.1-16 0-22.1l50.6-50.6c6.1-6.1 16-6.1 22.1 0l15 15z"/></svg>
