<svg xmlns="http://www.w3.org/2000/svg" viewBox="0 0 384 512" fill="#ffffff"><!-- Font Awesome Free 6.5.1 by @fontawesome - https://fontawesome.com License - https://fontawesome.com/license/free Copyright 2023 Fonticons, Inc. --><path d="M260.6 68.4c11.9-20.9 9.7-46.7-3.9-66.2c-29.3 8.3-51.4 32.1-59.5 60.1c-10.4 1.3-21.3-3.6-26.6-13.9zM224 160C117.9 160 32 245.9 32 352c0 23.3 4.1 45.7 11.7 66.5c22.7 61.9 83.2 93.5 136.3 93.5c48.3 0 85.9-27.4 121.7-27.4c34.8 0 74.4 27.2 118 27.2c35.6 0 76.5-17 101.4-44.5c-42.3-17.4-71.1-60.6-69.5-110.1C353.4 246.2 297.4 160 224 160z"/></svg>
