<svg xmlns="http://www.w3.org/2000/svg" viewBox="0 0 384 512" fill="#ffffff"><!-- Font Awesome Free 6.5.1 by @fontawesome - https://fontawesome.com License - https://fontawesome.com/license/free Copyright 2023 Fonticons, Inc. --><path d="M196.2 98.7c3.1-9.7 13.9-14.8 23.6-10.8s14.8 13.9 10.8 23.6l-21.9 69.4c-1.5 4.7-4.9 8.6-9.6 10.4L137.9 220c-7.2 2.7-15.1-.3-19.1-7.1l-24-41.6c-5.8-10.1-2.4-22.9 7.7-28.7l81.6-47.5c2.4-1.4 5-2.2 7.7-2.4l75.2-4.7c11.7-.7 21 8.7 21 20.4s-9.3 21-21 20.4l-63.1 3.9zM224.6 226.7l5.2-16.6c6.1-19.4 27.2-29.6 46.5-22.5l26.2 9.6c13.2 4.8 19.9 19.5 15.1 32.7L213.7 483.9c-2.9 8-10.5 13.5-19.1 13.5L144.1 480c-6.8-1.9-11.4-8-11.4-15.1L149.8 259.4 224.6 226.7z"/></svg>
