<svg xmlns="http://www.w3.org/2000/svg" viewBox="0 0 512 512" fill="#ffffff"><!-- Font Awesome Free 6.5.1 by @fontawesome - https://fontawesome.com License - https://fontawesome.com/license/free Copyright 2023 Fonticons, Inc. --><path d="M47.6 300.4L228.3 469.1c7.5 7 17.4 10.9 27.7 10.9s20.2-3.9 27.7-10.9L464.4 300.4c30.4-28.3 47.6-68 47.6-109.5v-5.8c0-69.9-50.5-129.5-119.4-141C347 36.5 300.6 51.4 268 84L256 96 244 84c-32.6-32.6-79-47.5-124.6-39.9C50.5 55.6 0 115.2 0 185.1v5.8c0 41.5 17.2 81.2 47.6 109.5z" style="display:none"/><path d="M32 256c-17.7 0-32 14.3-32 32s14.3 32 32 32h56c10.3 0 19.9-4.9 25.8-13.3L157.9 245l57.7 106.8c6 11.1 17.7 18.2 30.5 18.2 12.5 0 24.1-6.8 30.3-17.7l49.4-86.4 18.5 28.5c5.6 8.7 15.3 14 25.8 14h110c17.7 0 32-14.3 32-32s-14.3-32-32-32H388.9l-42.6-65.6c-5.8-9-15.8-14.4-26.6-14.4-10.9 0-21 5.6-26.6 14.8l-40.4 67.3-59.5-110.1c-6-11.1-17.7-18.1-30.3-18.1-12.8 0-24.5 7.1-30.5 18.2L106.1 256H32z"/></svg>
