<svg xmlns="http://www.w3.org/2000/svg" viewBox="0 0 512 512" fill="#ffffff"><!-- Font Awesome Free 6.5.1 by @fontawesome - https://fontawesome.com License - https://fontawesome.com/license/free Copyright 2023 Fonticons, Inc. --><path d="M128 112v288c0 8.8-7.2 16-16 16H48c-8.8 0-16-7.2-16-16V112c0-8.8 7.2-16 16-16h64c8.8 0 16 7.2 16 16zm336 0H400c-8.8 0-16 7.2-16 16v288c0 8.8 7.2 16 16 16h64c8.8 0 16-7.2 16-16V128c0-8.8-7.2-16-16-16zM152 232h208c13.3 0 24 10.7 24 24s-10.7 24-24 24H152c-13.3 0-24-10.7-24-24s10.7-24 24-24z"/></svg>
