<svg xmlns="http://www.w3.org/2000/svg" viewBox="0 0 512 512" fill="#ffffff"><!-- Font Awesome Free 6.5.1 by @fontawesome - https://fontawesome.com License - https://fontawesome.com/license/free Copyright 2023 Fonticons, Inc. --><path d="M112 112c0-26.5 21.5-48 48-48s48 21.5 48 48V400c0 26.5-21.5 48-48 48s-48-21.5-48-48V112zM48 128c-26.5 0-48 21.5-48 48V336c0 26.5 21.5 48 48 48H80V128H48zm352 0v256h32c26.5 0 48-21.5 48-48V176c0-26.5-21.5-48-48-48H400zM352 400c0 26.5-21.5 48-48 48s-48-21.5-48-48V112c0-26.5 21.5-48 48-48s48 21.5 48 48V400zM208 160h96c8.8 0 16 7.2 16 16v32c0 8.8-7.2 16-16 16H208c-8.8 0-16-7.2-16-16V176c0-8.8 7.2-16 16-16zm96 128H208c-8.8 0-16-7.2-16-16V240c0-8.8 7.2-16 16-16h96c8.8 0 16 7.2 16 16v32c0 8.8-7.2 16-16 16z"/></svg>
